<svg width="922" height="759" viewBox="0 0 922 759" fill="none" xmlns="http://www.w3.org/2000/svg">
    <path d="M361.515 377.841H758.504L833.21 431.266H269L361.515 377.841Z" fill="#F7F6F6" />
    <path d="M416.676 393.043H681.625L702.039 411.286H399.737L416.676 393.043Z" fill="#ECECEC" />
    <rect x="399.787" y="259.7" width="257.183" height="72.093" rx="16.8728"
        transform="rotate(16.4902 399.787 259.7)" fill="#FFEBE6" />
    <rect x="408.017" y="280.533" width="39.37" height="36.8135" rx="11.7599"
        transform="rotate(16.4902 408.017 280.533)" fill="white" />
    <path
        d="M450.925 295.901C450.925 295.901 441.943 302.029 437.179 303.466C426.724 308.174 419.305 312.873 413.763 317.198L410.578 319.684L408.744 314.538C407.171 309.207 406.328 306.66 402.497 300.98C402.497 300.98 411.668 305.676 412.882 309.329C419.139 305.222 427.878 301.204 436.34 298.653C441.37 297.137 446.432 296.098 450.925 295.901Z"
        fill="#F4A088" />
    <rect x="461.585" y="304.923" width="152.878" height="7.66947" rx="3.83474"
        transform="rotate(16.4902 461.585 304.923)" fill="#F4A088" />
    <rect x="457.957" y="317.179" width="92.545" height="7.66947" rx="3.83474"
        transform="rotate(16.4902 457.957 317.179)" fill="#F4A088" />
    <rect x="431.444" y="187.152" width="257.183" height="72.093" rx="16.8728"
        transform="rotate(-6.68884 431.444 187.152)" fill="#FFF7D2" />
    <rect x="447.21" y="203.063" width="39.37" height="36.8135" rx="11.7599"
        transform="rotate(-6.68884 447.21 203.063)" fill="white" />
    <path
        d="M492.703 200.302C492.703 200.302 486.859 209.471 483.044 212.667C475.287 221.109 470.316 228.349 466.924 234.507L464.974 238.046L461.263 234.037C457.719 229.756 455.941 227.746 450.184 224.032C450.184 224.032 460.462 224.739 463.017 227.619C467.151 221.382 473.604 214.248 480.379 208.573C484.406 205.199 488.65 202.252 492.703 200.302Z"
        fill="#F9CD00" />
    <rect x="506.054" y="204.399" width="152.878" height="7.66947" rx="3.83474"
        transform="rotate(-6.68884 506.054 204.399)" fill="#FAE065" />
    <rect x="507.543" y="217.095" width="92.545" height="7.66947" rx="3.83474"
        transform="rotate(-6.68884 507.543 217.095)" fill="#FAE065" />
    <rect x="434.092" y="38" width="257.183" height="72.093" rx="16.8728"
        transform="rotate(8.01406 434.092 38)" fill="#DFFFDF" />
    <rect x="445.303" y="57.3922" width="39.37" height="36.8135" rx="11.7599"
        transform="rotate(8.01406 445.303 57.3922)" fill="white" />
    <path
        d="M490.008 66.2679C490.008 66.2679 482.027 73.6528 477.527 75.7758C467.88 81.9734 461.235 87.7146 456.391 92.8095L453.607 95.7378L451.035 90.9185C448.693 85.8775 447.484 83.4824 442.858 78.429C442.858 78.429 452.62 81.7217 454.36 85.156C459.943 80.172 467.995 74.9098 475.987 71.1395C480.739 68.8981 485.593 67.1249 490.008 66.2679Z"
        fill="#2DC72D" />
    <rect x="501.881" y="73.6193" width="152.878" height="7.66947" rx="3.83474"
        transform="rotate(8.01406 501.881 73.6193)" fill="#A3F7A3" />
    <rect x="500.099" y="86.2769" width="92.545" height="7.66947" rx="3.83474"
        transform="rotate(8.01406 500.099 86.2769)" fill="#A3F7A3" />
    <path d="M269.869 429.963H833.645V739.214H269.869V429.963Z" fill="#ECECEC" />
    <path d="M417 411V393H681V411H417Z" fill="#E8E5E5" />
    <g filter="url(#filter0_f_0_1)">
        <path d="M272 738H21L272 716V738Z" fill="#D9D9D9" />
        <path d="M272 738H21L272 716V738Z" stroke="#D9D9D9" />
    </g>
    <path
        d="M396.57 134.248L394.096 140.333C393.747 141.167 393.87 142.474 394.336 143.257L397.186 147.825C399.005 150.747 397.682 152.964 394.226 152.756L388.375 152.379C387.405 152.317 386.126 152.913 385.542 153.732L382.476 158.007C380.06 161.38 377.44 160.798 376.684 156.719L375.619 151.026C375.435 149.995 374.444 148.869 373.446 148.554L367.937 146.767C364.005 145.48 363.748 142.821 367.402 140.857L372.036 138.365C372.907 137.905 373.663 136.714 373.741 135.73L374.118 129.879C374.34 126.439 376.709 125.41 379.389 127.576L383.553 130.988C384.254 131.565 385.55 131.841 386.422 131.601L392.774 129.929C396.199 128.999 397.905 130.939 396.57 134.248Z"
        stroke="#E04E51" stroke-width="1.5" stroke-linecap="round" stroke-linejoin="round" />
    <path d="M386.734 122.395L378.482 113.006" stroke="#E04E51" stroke-width="1.5"
        stroke-linecap="round" stroke-linejoin="round" />
    <path d="M360.701 136.956L356.575 132.262" stroke="#E04E51" stroke-width="1.5"
        stroke-linecap="round" stroke-linejoin="round" />
    <path d="M368.904 124.199L367.529 122.634" stroke="#E04E51" stroke-width="1.5"
        stroke-linecap="round" stroke-linejoin="round" />
    <path
        d="M653.806 286.539L650.557 288.267C650.107 288.5 649.69 289.106 649.61 289.61L649.195 292.598C648.928 294.508 647.562 294.986 646.151 293.656L643.77 291.392C643.375 291.017 642.611 290.814 642.066 290.957L639.212 291.694C636.962 292.276 636.045 291.085 637.184 289.06L638.771 286.229C639.062 285.72 639.041 284.88 638.724 284.386L636.997 281.639C635.768 279.673 636.613 278.437 638.89 278.905L641.777 279.498C642.34 279.589 643.093 279.348 643.468 278.953L645.731 276.573C647.062 275.173 648.45 275.582 648.825 277.475L649.39 280.439C649.484 280.938 649.943 281.522 650.403 281.732L653.735 283.295C655.532 284.148 655.568 285.595 653.806 286.539Z"
        fill="#09C9DB" />
    <path
        d="M652.958 277.932L652.781 270.931C652.769 270.452 653.156 270.045 653.634 270.033C654.113 270.021 654.52 270.408 654.532 270.886L654.708 277.887C654.72 278.366 654.334 278.773 653.855 278.785C653.377 278.797 652.97 278.41 652.958 277.932Z"
        fill="#09C9DB" />
    <path
        d="M636.534 274.843L636.445 271.343C636.433 270.864 636.82 270.458 637.298 270.446C637.777 270.433 638.184 270.82 638.196 271.299L638.284 274.799C638.296 275.278 637.909 275.684 637.431 275.696C636.953 275.708 636.546 275.322 636.534 274.843Z"
        fill="#09C9DB" />
    <path
        d="M644.643 272.303L644.613 271.137C644.601 270.658 644.988 270.251 645.466 270.239C645.945 270.227 646.352 270.614 646.364 271.092L646.393 272.259C646.405 272.738 646.018 273.144 645.54 273.157C645.062 273.169 644.655 272.782 644.643 272.303Z"
        fill="#09C9DB" />
    <path
        d="M722.209 52.5588L715.087 51.9845C714.108 51.8954 712.792 52.4502 712.133 53.19L708.327 57.6415C705.891 60.4852 703.158 59.8377 702.242 56.1849L700.718 49.992C700.466 48.965 699.428 47.8341 698.388 47.496L692.95 45.7153C688.66 44.312 688.407 41.4039 692.39 39.285L697.947 36.3169C698.956 35.7881 699.801 34.3921 699.801 33.2534L699.851 26.9536C699.899 22.4532 702.573 21.3166 705.807 24.465L709.908 28.456C710.733 29.1936 712.216 29.5877 713.243 29.335L719.436 27.8111C723.077 26.9152 724.919 29.0362 723.55 32.5251L721.373 37.962C721.004 38.8779 721.143 40.3125 721.676 41.1384L725.49 47.1804C727.533 50.4565 726.079 52.8608 722.209 52.5588Z"
        fill="#FFD92B" />
    <path
        d="M729.831 37.5969L736.87 25.9635C737.351 25.1685 738.409 24.9081 739.204 25.3891C739.999 25.8701 740.259 26.9282 739.778 27.7231L732.74 39.3565C732.259 40.1515 731.2 40.4119 730.406 39.9309C729.611 39.4499 729.35 38.3918 729.831 37.5969Z"
        fill="#FFD92B" />
    <path
        d="M706.206 15.3566L709.725 9.53985C710.206 8.7449 711.264 8.48454 712.059 8.96551C712.854 9.44649 713.115 10.5046 712.634 11.2995L709.114 17.1162C708.633 17.9112 707.575 18.1715 706.78 17.6906C705.985 17.2096 705.725 16.1515 706.206 15.3566Z"
        fill="#FFD92B" />
    <path
        d="M722.125 19.6906L723.298 17.7517C723.779 16.9567 724.837 16.6963 725.632 17.1773C726.427 17.6583 726.687 18.7164 726.206 19.5113L725.033 21.4502C724.552 22.2452 723.494 22.5056 722.699 22.0246C721.904 21.5436 721.644 20.4855 722.125 19.6906Z"
        fill="#FFD92B" />
    <g filter="url(#filter1_f_0_1)">
        <path d="M829 733H901L829 711V733Z" fill="#D9D9D9" />
        <path d="M829 733H901L829 711V733Z" stroke="#D9D9D9" />
    </g>
    <defs>
        <filter id="filter0_f_0_1" x="0.95636" y="695.454" width="291.544" height="63.0457"
            filterUnits="userSpaceOnUse" color-interpolation-filters="sRGB">
            <feFlood flood-opacity="0" result="BackgroundImageFix" />
            <feBlend mode="normal" in="SourceGraphic" in2="BackgroundImageFix" result="shape" />
            <feGaussianBlur stdDeviation="10" result="effect1_foregroundBlur_0_1" />
        </filter>
        <filter id="filter1_f_0_1" x="808.5" y="690.324" width="112.646" height="63.1756"
            filterUnits="userSpaceOnUse" color-interpolation-filters="sRGB">
            <feFlood flood-opacity="0" result="BackgroundImageFix" />
            <feBlend mode="normal" in="SourceGraphic" in2="BackgroundImageFix" result="shape" />
            <feGaussianBlur stdDeviation="10" result="effect1_foregroundBlur_0_1" />
        </filter>
    </defs>
</svg>